<svg viewBox="0 0 320 100.00988854952963" preserveAspectRatio="xMidYMid meet" id="faebcffb"><defs id="SvgjsDefs1001"><linearGradient id="SvgjsLinearGradient1011"><stop id="SvgjsStop1012" stop-color="#ef4136" offset="0"></stop><stop id="SvgjsStop1013" stop-color="#fbb040" offset="1"></stop></linearGradient><linearGradient id="SvgjsLinearGradient1014"><stop id="SvgjsStop1015" stop-color="#ef4136" offset="0"></stop><stop id="SvgjsStop1016" stop-color="#fbb040" offset="1"></stop></linearGradient></defs><g id="SvgjsG1007" featurekey="symbolFeature-0" transform="matrix(26.28363931960513,0,0,26.28363931960513,-15.701669353849715,-15.701669353849715)" fill="#111"><g xmlns="http://www.w3.org/2000/svg"><path d="M2.1,3.431c0.201-0.289,0.522-0.154,0.599,0.207c0.109,0.517,0.626,0.586,0.626,0.586S2.95,4.566,2.395,4.303   C2.03,4.129,1.963,3.627,2.1,3.431z"></path><path d="M2.875,3.441c-0.062-0.346,0.26-0.479,0.57-0.277c0.442,0.288,0.857-0.028,0.857-0.028S4.279,3.644,3.7,3.849   C3.319,3.985,2.917,3.676,2.875,3.441z"></path><path d="M3.431,2.9C3.143,2.699,3.277,2.378,3.638,2.302c0.517-0.109,0.586-0.626,0.586-0.626s0.342,0.375,0.078,0.93   C4.129,2.971,3.627,3.037,3.431,2.9z"></path><path d="M3.441,2.125c-0.346,0.062-0.479-0.261-0.277-0.57c0.288-0.442-0.028-0.857-0.028-0.857S3.644,0.721,3.85,1.3   C3.985,1.681,3.677,2.083,3.441,2.125z"></path><path d="M2.9,1.569C2.699,1.858,2.378,1.723,2.302,1.362C2.193,0.846,1.676,0.775,1.676,0.775s0.375-0.341,0.93-0.078   C2.971,0.871,3.037,1.374,2.9,1.569z"></path><path d="M2.125,1.559c0.062,0.347-0.261,0.479-0.57,0.277C1.113,1.547,0.698,1.864,0.698,1.864S0.721,1.357,1.3,1.151   C1.681,1.016,2.083,1.324,2.125,1.559z"></path><path d="M1.569,2.1c0.289,0.201,0.154,0.522-0.207,0.599C0.845,2.807,0.775,3.325,0.775,3.325S0.434,2.95,0.697,2.395   C0.871,2.03,1.374,1.963,1.569,2.1z"></path><path d="M1.559,2.875c0.347-0.062,0.479,0.261,0.277,0.569C1.547,3.887,1.864,4.303,1.864,4.303S1.356,4.279,1.151,3.7   C1.015,3.32,1.324,2.917,1.559,2.875z"></path></g></g><g id="SvgjsG1008" featurekey="nameFeature-0" transform="matrix(1.3787531977918406,0,0,1.3787531977918406,118.41126285428167,14.788618070048472)" fill="#111"><path d="M5.332 36.0937 c-2.7865 -2.7865 -4.1797 -6.1459 -4.1797 -10.078 s1.3932 -7.2916 4.1797 -10.078 s6.1459 -4.1797 10.078 -4.1797 c1.9401 0 3.7891 0.37109 5.5469 1.1133 l-1.6406 3.9258 c-1.25 -0.53385 -2.5521 -0.80078 -3.9063 -0.80078 c-2.7604 0 -5.1172 0.98307 -7.0703 2.9492 c-1.9531 1.9531 -2.9297 4.31 -2.9297 7.0703 s0.97656 5.1172 2.9297 7.0703 s4.31 2.9297 7.0703 2.9297 c0.89844 0 1.7708 -0.11068 2.6172 -0.33203 l0 -7.6172 l-4.5313 0 l0 -4.2578 l8.7891 0 l0 14.785 l-1.2891 0.54688 c-1.7838 0.75521 -3.6459 1.1328 -5.5859 1.1328 c-3.9322 0 -7.2916 -1.3932 -10.078 -4.1797 z M41.77765625 12.050999999999998 l-17.676 27.949 l5.0195 0 l4.1211 -6.5234 l9.4922 0 l0 6.5234 l4.2578 0 l0 -27.949 l-5.2148 0 z M42.73465625 18.477 l0 10.762 l-6.8164 0 z M51.7578625 12.050999999999998 l0 27.949 l14.258 0 l0 -4.2383 l-10.02 0 l0 -23.711 l-4.2383 0 z M69.4141125 12.050999999999998 l0 27.949 l14.258 0 l0 -4.2383 l-10.02 0 l0 -23.711 l-4.2383 0 z M87.0703625 12.050999999999998 l0 27.949 l14.258 0 l0 -4.2383 l-10.02 0 l0 -7.6563 l7.7344 0 l0 -4.2383 l-7.7344 0 l0 -7.5781 l10.02 0 l0 -4.2383 l-14.258 0 z M108.7500125 23.984 l0 -7.6953 l6.0742 0 c1.0547 0 1.9596 0.3776 2.7148 1.1328 c0.74219 0.75521 1.1133 1.6667 1.1133 2.7344 c0 1.0547 -0.37109 1.9531 -1.1133 2.6953 c-0.75521 0.75521 -1.6602 1.1328 -2.7148 1.1328 l-6.0742 0 z M117.9878125 27.578 c1.4583 -0.625 2.6367 -1.6015 3.5352 -2.9297 c0.92447 -1.3542 1.3867 -2.8516 1.3867 -4.4922 c0 -2.2396 -0.79428 -4.1471 -2.3828 -5.7227 c-1.5755 -1.5885 -3.4766 -2.3828 -5.7031 -2.3828 l-10.313 0 l0 27.949 l4.2383 0 l0 -11.777 l4.7852 0 l6.1133 11.777 l4.7852 0 z M141.2891875 12.050999999999998 l-5.918 10.039 l-5.918 -10.039 l-4.9219 0 l8.7109 14.805 l0 13.145 l4.2578 0 l0 -13.145 l8.7109 -14.805 l-4.9219 0 z"></path></g></svg>
